<?xml version="1.0" encoding="utf-8"?>
<!-- Generator: $$$/GeneralStr/196=Adobe Illustrator 27.6.0, SVG Export Plug-In . SVG Version: 6.00 Build 0)  -->
<svg version="1.1" id="Calque_1" xmlns="http://www.w3.org/2000/svg" xmlns:xlink="http://www.w3.org/1999/xlink" x="0px" y="0px"
	 viewBox="0 0 500 500" style="enable-background:new 0 0 500 500;" xml:space="preserve">
<style type="text/css">
	.st0{fill:#4D4D4D;}
	.st1{fill:#FFFFFF;}
	.st2{fill:#666666;}
</style>
<g>
	<path class="st0" d="M357,260.2v39.3c0,0.4,0.3,0.8,0.8,0.8h68.9c0.4,0,0.8,0.3,0.8,0.8v15.5c0,0.7,0.8,1,1.3,0.5l15-16.6
		c0.1-0.1,0.3-0.2,0.5-0.2h12.6c0.4,0,0.8-0.3,0.8-0.8v-39.3c0-0.4-0.3-0.8-0.8-0.8h-99.1C357.3,259.4,357,259.8,357,260.2z"/>
	<path class="st1" d="M383.1,287.6v-7.9c0-1.8-1.1-2.4-2.2-2.4c-1,0-2.2,0.6-2.2,2.3v8h-3.3v-8c0-1.8-1.2-2.4-2.2-2.4
		c-1,0-2.2,0.6-2.2,2.4v7.9h-3.3v-13.1h3.2v1.2c0.9-0.9,2.1-1.3,3.3-1.3c1.5,0,2.7,0.5,3.5,1.7c1.1-1.2,2.3-1.7,4-1.7
		c1.3,0,2.5,0.4,3.2,1.2c1,1,1.5,2.3,1.5,3.7v8.4L383.1,287.6L383.1,287.6z"/>
	<path class="st1" d="M396.7,278.4c-0.3-0.8-1.1-1.3-2.2-1.3c-1.1,0-1.9,0.6-2.2,1.3c-0.2,0.5-0.3,0.8-0.3,1.4h5
		C397,279.3,397,279,396.7,278.4 M392.1,282.1c0,1.7,1,2.9,2.9,2.9c1.5,0,2.2-0.4,3-1.2l2,1.9c-1.3,1.3-2.6,2-5,2
		c-3.1,0-6.1-1.4-6.1-6.7c0-4.3,2.3-6.7,5.7-6.7c3.7,0,5.7,2.6,5.7,6.3v1.4H392.1z"/>
	<path class="st1" d="M407.9,277.3c-2,0-2.2,1.6-2.2,3.7c0,2.1,0.2,3.8,2.2,3.8c2,0,2.3-1.7,2.3-3.8
		C410.1,279,409.9,277.3,407.9,277.3 M410.2,287.6v-1.2c-0.9,1-1.9,1.4-3.3,1.4c-1.3,0-2.4-0.4-3.2-1.2c-1.3-1.3-1.3-3.3-1.3-5.5
		c0-2.2,0.1-4.2,1.3-5.5c0.8-0.8,1.9-1.2,3.2-1.2s2.3,0.3,3.2,1.3v-6h3.3v17.9H410.2z"/>
	<path class="st1" d="M417.3,274.9h3.3v12.7h-3.3V274.9z M417.2,269.7h3.4v2.7h-3.4V269.7z"/>
	<path class="st1" d="M430.9,282.1h-2.5c-1.3,0-1.9,0.5-1.9,1.5c0,0.9,0.6,1.5,2,1.5c0.8,0,1.4-0.1,1.9-0.6c0.4-0.3,0.5-0.8,0.5-1.7
		V282.1L430.9,282.1z M430.9,287.6v-1.1c-0.9,0.9-1.7,1.3-3.2,1.3c-1.5,0-2.6-0.4-3.4-1.2c-0.7-0.8-1.1-1.8-1.1-3
		c0-2.1,1.5-3.8,4.5-3.8h3v-0.6c0-1.5-0.7-2-2.4-2c-1.2,0-1.8,0.3-2.5,1.1l-2.1-2c1.3-1.4,2.5-1.9,4.7-1.9c3.7,0,5.6,1.6,5.6,4.7
		v8.6L430.9,287.6L430.9,287.6z"/>
	<path class="st1" d="M444.3,277.4v10.2H441v-10.2h-1.3v-2.5h1.3v-1.6c0-1.9,1.2-3.7,3.8-3.7h1.9v2.8h-1.3c-0.8,0-1.2,0.4-1.2,1.2
		v1.5h2.4v2.4C446.7,277.4,444.3,277.4,444.3,277.4z"/>
</g>
<g>
	<path class="st2" d="M289.4,216.6c-1.3,1.3-3.5,2.2-6.1,2.2c-2.9,0-5.2-0.6-7.4-3.5v15.2h-2.7v-37h2.7v3.2c2.2-2.9,4.6-3.5,7.4-3.5
		c2.7,0,4.8,0.9,6.1,2.2c2.5,2.5,3.2,6.7,3.2,10.7S292,214.1,289.4,216.6z M282.9,195.4c-6.1,0-7.1,5.3-7.1,10.5s0.9,10.5,7.1,10.5
		c6.1,0,7.1-5.3,7.1-10.5S289.1,195.4,282.9,195.4z"/>
	<path class="st2" d="M317.6,218.5v-3c-1.9,2.2-4.3,3.3-7.4,3.3c-2.8,0-5-0.8-6.7-2.4c-1.7-1.7-2.6-4-2.6-7v-16h2.7V209
		c0,4.8,2.4,7.5,6.9,7.5c4.5,0,7.1-2.7,7.1-7.5v-15.5h2.7v25.1H317.6z"/>
	<path class="st2" d="M346.6,216.6c-1.3,1.3-3.5,2.2-6.1,2.2c-2.9,0-5.2-0.6-7.4-3.5v3.2h-2.7v-37h2.7v15.2c2.2-2.9,4.6-3.5,7.4-3.5
		c2.7,0,4.8,0.9,6.1,2.2c2.5,2.5,3.2,6.7,3.2,10.7S349.1,214.1,346.6,216.6z M340.1,195.4c-6.1,0-7.1,5.3-7.1,10.5
		s0.9,10.5,7.1,10.5c6.1,0,7.1-5.3,7.1-10.5S346.2,195.4,340.1,195.4z"/>
	<path class="st2" d="M364.4,218.5c-4.1,0-6-2.5-6-6.5v-30.5h2.7v30.5c0,2.9,0.9,4.2,3.8,4.2h1.8v2.3H364.4z"/>
	<path class="st2" d="M373,184.7v-3.3h3.3v3.3H373z M373.4,218.5v-25.1h2.7v25.1H373.4z"/>
	<path class="st2" d="M395.7,218.8c-6.9,0-11-4.9-11-12.8c0-8,4.2-12.8,11-12.8c3.4,0,5.6,0.9,8.3,3.8l-1.8,1.7
		c-2.1-2.4-3.8-3.2-6.4-3.2c-2.9,0-5.1,1.1-6.7,3.3c-1.2,1.8-1.7,3.8-1.7,7.2c0,3.4,0.5,5.4,1.7,7.2c1.5,2.2,3.8,3.3,6.7,3.3
		c2.7,0,4.3-0.8,6.4-3.2l1.8,1.7C401.3,217.9,399.1,218.8,395.7,218.8z"/>
	<path class="st2" d="M411.4,184.7v-3.3h3.3v3.3H411.4z M411.7,218.5v-25.1h2.7v25.1H411.7z"/>
	<path class="st2" d="M431.1,218.5c-4,0-6-2.8-6-6.6v-16.5h-3.4v-2h3.4v-8h2.7v8h5.7v2h-5.7V212c0,2.7,1.2,4.2,3.8,4.2h1.8v2.3
		H431.1z"/>
	<path class="st2" d="M442.3,206.5c0,6.4,2.8,9.9,8.2,9.9c3,0,4.8-0.9,6.9-3l2,1.6c-2.5,2.5-4.9,3.8-9,3.8
		c-6.9,0-10.7-4.5-10.7-12.8c0-8.1,3.7-12.8,10-12.8c6.3,0,10,4.5,10,12.2v1.2H442.3z M456.2,199.7c-1.1-2.7-3.6-4.2-6.5-4.2
		s-5.3,1.6-6.5,4.2c-0.7,1.5-0.7,2.3-0.9,4.7h14.8C456.9,202,456.9,201.2,456.2,199.7z M450.4,187.8h-3l5-7.6h3.5L450.4,187.8z"/>
</g>
<g>
</g>
<g>
</g>
<g>
</g>
<g>
</g>
<g>
</g>
<g>
</g>
<g>
</g>
<g>
</g>
<g>
</g>
<g>
</g>
<g>
</g>
<g>
</g>
<g>
</g>
<g>
</g>
<g>
</g>
</svg>
